<svg xmlns="http://www.w3.org/2000/svg" xmlns:xlink="http://www.w3.org/1999/xlink" viewBox="0 0 381.01 118.61"><defs><style>.cls-1,.cls-2,.cls-3,.cls-4,.cls-5,.cls-6,.cls-7{fill-rule:evenodd;}.cls-1{fill:url(#Áåçûìÿííûé_ãðàäèåíò_26);}.cls-2{fill:url(#Áåçûìÿííûé_ãðàäèåíò_25);}.cls-3{fill:url(#Áåçûìÿííûé_ãðàäèåíò_26-2);}.cls-4{fill:url(#Áåçûìÿííûé_ãðàäèåíò_26-3);}.cls-5{fill:url(#Áåçûìÿííûé_ãðàäèåíò_26-4);}.cls-6{fill:url(#Áåçûìÿííûé_ãðàäèåíò_26-5);}.cls-7{fill:url(#Áåçûìÿííûé_ãðàäèåíò_23);}.cls-8{fill:url(#Áåçûìÿííûé_ãðàäèåíò_26-6);}.cls-9{fill:url(#Áåçûìÿííûé_ãðàäèåíò_26-7);}.cls-10{fill:url(#Áåçûìÿííûé_ãðàäèåíò_26-8);}.cls-11{fill:url(#Áåçûìÿííûé_ãðàäèåíò_26-9);}.cls-12{fill:url(#Áåçûìÿííûé_ãðàäèåíò_26-10);}.cls-13{fill:url(#Áåçûìÿííûé_ãðàäèåíò_26-11);}.cls-14{fill:url(#Áåçûìÿííûé_ãðàäèåíò_26-12);}</style><linearGradient id="Áåçûìÿííûé_ãðàäèåíò_26" x1="63.04" y1="21.76" x2="148.93" y2="79.57" gradientUnits="userSpaceOnUse"><stop offset="0" stop-color="#9b6216"/><stop offset="0.23" stop-color="#e9b229"/><stop offset="0.51" stop-color="#fce074"/><stop offset="0.77" stop-color="#ba811a"/><stop offset="1" stop-color="#a9771b"/></linearGradient><linearGradient id="Áåçûìÿííûé_ãðàäèåíò_25" x1="213.66" y1="1.92" x2="173.36" y2="85.77" gradientUnits="userSpaceOnUse"><stop offset="0" stop-color="#ad761b"/><stop offset="0.1" stop-color="#c08b25"/><stop offset="0.26" stop-color="#e9b229"/><stop offset="0.42" stop-color="#fce074"/><stop offset="0.81" stop-color="#ba811a"/><stop offset="1" stop-color="#a9771b"/></linearGradient><linearGradient id="Áåçûìÿííûé_ãðàäèåíò_26-2" x1="0" y1="61.75" x2="99.42" y2="61.75" xlink:href="#Áåçûìÿííûé_ãðàäèåíò_26"/><linearGradient id="Áåçûìÿííûé_ãðàäèåíò_26-3" x1="70.6" y1="36.56" x2="170.21" y2="36.56" xlink:href="#Áåçûìÿííûé_ãðàäèåíò_26"/><linearGradient id="Áåçûìÿííûé_ãðàäèåíò_26-4" x1="205.45" y1="51.19" x2="326.81" y2="51.19" xlink:href="#Áåçûìÿííûé_ãðàäèåíò_26"/><linearGradient id="Áåçûìÿííûé_ãðàäèåíò_26-5" x1="327.14" y1="18.68" x2="381.01" y2="18.68" xlink:href="#Áåçûìÿííûé_ãðàäèåíò_26"/><linearGradient id="Áåçûìÿííûé_ãðàäèåíò_23" x1="332.59" y1="52.77" x2="272.01" y2="-27.33" gradientUnits="userSpaceOnUse"><stop offset="0" stop-color="#9b6216"/><stop offset="0.3" stop-color="#e9b229"/><stop offset="0.49" stop-color="#fce074"/><stop offset="0.93" stop-color="#ba811a"/><stop offset="1" stop-color="#a9771b"/></linearGradient><linearGradient id="Áåçûìÿííûé_ãðàäèåíò_26-6" x1="57.9" y1="109.35" x2="74.16" y2="109.35" xlink:href="#Áåçûìÿííûé_ãðàäèåíò_26"/><linearGradient id="Áåçûìÿííûé_ãðàäèåíò_26-7" x1="101.91" y1="109.35" x2="105.67" y2="109.35" xlink:href="#Áåçûìÿííûé_ãðàäèåíò_26"/><linearGradient id="Áåçûìÿííûé_ãðàäèåíò_26-8" x1="133.96" y1="109.35" x2="150.07" y2="109.35" xlink:href="#Áåçûìÿííûé_ãðàäèåíò_26"/><linearGradient id="Áåçûìÿííûé_ãðàäèåíò_26-9" x1="176.72" y1="109.35" x2="188.46" y2="109.35" xlink:href="#Áåçûìÿííûé_ãðàäèåíò_26"/><linearGradient id="Áåçûìÿííûé_ãðàäèåíò_26-10" x1="215.14" y1="109.35" x2="238.25" y2="109.35" xlink:href="#Áåçûìÿííûé_ãðàäèåíò_26"/><linearGradient id="Áåçûìÿííûé_ãðàäèåíò_26-11" x1="261.88" y1="109.35" x2="279.86" y2="109.35" xlink:href="#Áåçûìÿííûé_ãðàäèåíò_26"/><linearGradient id="Áåçûìÿííûé_ãðàäèåíò_26-12" x1="302.1" y1="109.35" x2="313.72" y2="109.35" xlink:href="#Áåçûìÿííûé_ãðàäèåíò_26"/></defs><title>Asset 1</title><g id="Layer_2" data-name="Layer 2"><g id="Ñëîé_1" data-name="Ñëîé 1"><polygon class="cls-1" points="99.42 73.11 120.24 51.4 70.6 0 49.71 21.63 99.42 73.11"/><polygon class="cls-2" points="251.24 0 180.64 73.11 142.8 73.11 213.4 0 251.24 0"/><polygon class="cls-3" points="21.94 50.39 0 73.11 99.42 73.11 77.48 50.39 21.94 50.39"/><polygon class="cls-4" points="92.69 22.87 142.8 22.72 142.8 73.11 170.21 44.72 170.21 0 70.6 0 92.69 22.87"/><polygon class="cls-5" points="297.98 50.39 244.85 50.39 222.97 29.27 205.45 47.41 232.06 73.11 310.41 73.11 326.81 56.12 309.03 38.95 297.98 50.39"/><polygon class="cls-6" points="346.64 0 327.14 20.19 344.92 37.37 381.01 0 346.64 0"/><polygon class="cls-7" points="344.92 37.37 326.81 56.12 268.69 0 306.23 0 344.92 37.37"/><path class="cls-8" d="M61.44,109.58c-.28-6,6.34-8.21,10.21-4.27L74,103c-5.26-5.83-16.44-2.48-16.08,6.48.31,7.63,7.94,12.11,16.25,6.85L72,113.68C68.05,116.66,61.71,115.41,61.44,109.58Z"/><polygon class="cls-9" points="101.91 118.61 105.67 118.61 105.67 104.57 101.91 100.09 101.91 118.61"/><polygon class="cls-10" points="146.23 112.14 137.8 100.09 133.96 100.09 133.96 118.61 137.8 118.61 137.8 107.63 146 118.61 150.07 118.61 150.07 100.09 146.23 100.09 146.23 112.14"/><polygon class="cls-11" points="176.72 100.09 176.72 103.3 176.72 107.59 176.72 110.79 176.72 115.4 176.72 118.61 180.01 118.61 188.46 118.61 188.46 115.4 180.01 115.4 180.01 110.79 187.24 110.79 187.24 107.59 180.01 107.59 180.01 103.3 188.46 103.3 188.46 100.09 180.01 100.09 176.72 100.09"/><polygon class="cls-12" points="226.89 114.77 218.43 100.09 215.14 100.09 215.14 118.61 218.43 118.61 218.43 106.4 225.25 118.61 228.37 118.61 234.95 106.56 234.95 118.61 238.25 118.61 238.25 100.09 234.95 100.09 226.89 114.77"/><path class="cls-13" d="M261.88,118.61h3.49l1.1-2.2h8.19l1,2.2h4.17l-9-18.52Zm6-5.08,2.79-5.6,2.62,5.6Z"/><path class="cls-14" d="M309.86,108.13c-3.93-.65-4-1.29-4-3,0-2.41,4.34-2.88,4.38.1h3.48c-.3-3.4-2.3-5.18-5.5-5.18-3,0-5.37,1.85-5.57,4.27-.19,2.27.05,3.87,1.37,5,2.09,1.77,6.95.85,6.67,4.13-.25,2.91-5.19,3-5.24,0l-3.32,0c-.19,2.8,1.58,5.12,6.16,5.12,3.43,0,5.44-1.89,5.44-5.22C313.72,110.58,312.05,108.49,309.86,108.13Z"/></g></g></svg>