<svg width="18" height="16" viewBox="0 0 18 16" fill="none" xmlns="http://www.w3.org/2000/svg">
<path fill-rule="evenodd" clip-rule="evenodd" d="M0.601562 8.00312C0.601562 7.50607 1.00451 7.10312 1.50156 7.10312L14.2671 7.10312L9.27776 2.35187C8.91947 2.00736 8.9083 1.43762 9.25281 1.07932C9.59733 0.72103 10.1671 0.709858 10.5254 1.05437L17.1254 7.35437C17.3018 7.52406 17.4016 7.75831 17.4016 8.00312C17.4016 8.24794 17.3018 8.48219 17.1254 8.65187L10.5254 14.9519C10.1671 15.2964 9.59733 15.2852 9.25281 14.9269C8.9083 14.5686 8.91947 13.9989 9.27777 13.6544L14.2671 8.90312L1.50156 8.90312C1.00451 8.90312 0.601562 8.50018 0.601562 8.00312Z" fill="white"/>
</svg>
