<svg width="21" height="20" viewBox="0 0 21 20" fill="none" xmlns="http://www.w3.org/2000/svg">
<path d="M0.609863 1.52469C0.609863 0.743162 1.26363 0.109375 2.06997 0.109375H18.9076C19.7139 0.109375 20.3677 0.743162 20.3677 1.52469V18.4519C20.3677 19.2336 19.7139 19.8672 18.9076 19.8672H2.06997C1.26363 19.8672 0.609863 19.2336 0.609863 18.4519V1.52469Z" fill="white"/>
<path d="M5.10691 6.51256C6.14749 6.51256 6.79533 5.82741 6.79533 4.97124C6.77601 4.09575 6.14771 3.42969 5.12667 3.42969C4.10585 3.42969 3.43848 4.09575 3.43848 4.97124C3.43848 5.82741 4.08609 6.51256 5.0876 6.51256H5.10691Z" fill="#0F0F0F"/>
<path d="M6.59905 16.6483V7.72656H3.61475V16.6483H6.59905Z" fill="#0F0F0F"/>
<path d="M8.25049 16.6466H11.2348V11.6643C11.2348 11.3976 11.2541 11.1313 11.3329 10.9408C11.5487 10.4079 12.0396 9.85627 12.8642 9.85627C13.944 9.85627 14.3761 10.6745 14.3761 11.8738V16.6466H17.3599V11.5311C17.3599 8.79066 15.8878 7.51562 13.9243 7.51562C12.3145 7.51562 11.6076 8.40978 11.2148 9.01876H11.2348V7.72484H8.25049C8.28956 8.56213 8.25049 16.6466 8.25049 16.6466Z" fill="#0F0F0F"/>
</svg>
