<svg width="21" height="18" viewBox="0 0 21 18" fill="none" xmlns="http://www.w3.org/2000/svg">
<path d="M6.82326 17.0152C14.279 17.0152 18.357 10.838 18.357 5.48144C18.357 5.30604 18.357 5.13129 18.3451 4.95742C19.1385 4.38357 19.8232 3.67317 20.3675 2.85914C19.6276 3.1869 18.8428 3.40204 18.0391 3.49688C18.8854 2.9902 19.5187 2.19352 19.8213 1.25481C19.0255 1.72702 18.155 2.05983 17.2473 2.23875C15.7121 0.606313 13.1442 0.527502 11.5118 2.06268C10.4589 3.05277 10.0124 4.52802 10.339 5.93587C7.08011 5.77232 4.04333 4.23297 1.98501 1.70046C0.909084 3.55264 1.45857 5.92226 3.24007 7.11168C2.59486 7.09258 1.96393 6.9185 1.40018 6.60435C1.40018 6.62103 1.40018 6.63837 1.40018 6.65572C1.40061 8.5854 2.76083 10.2472 4.65231 10.6295C4.05563 10.7921 3.4293 10.8161 2.82186 10.699C3.35291 12.3504 4.8747 13.4816 6.60899 13.5141C5.17348 14.6423 3.40032 15.2545 1.5747 15.2528C1.25221 15.2521 0.930159 15.2326 0.609863 15.1942C2.46359 16.3838 4.6207 17.0147 6.82326 17.0119" fill="white"/>
</svg>
